<?xml version="1.0" encoding="utf-8"?>
<!-- Generator: Adobe Illustrator 21.1.0, SVG Export Plug-In . SVG Version: 6.00 Build 0)  -->
<svg version="1.1" id="Слой_1" xmlns="http://www.w3.org/2000/svg" xmlns:xlink="http://www.w3.org/1999/xlink" x="0px" y="0px"
	 width="49px" height="49px" viewBox="0 0 49 49" style="enable-background:new 0 0 49 49;" xml:space="preserve">
<g id="Layer_2">
	<g>
		<path style="fill:#323232;" d="M24.5,0C11,0,0,11,0,24.5S11,49,24.5,49S49,38,49,24.5S38,0,24.5,0z M24.5,47
			C12.1,47,2,36.9,2,24.5C2,12.1,12.1,2,24.5,2C36.9,2,47,12.1,47,24.5C47,36.9,36.9,47,24.5,47z"/>
		<path style="fill:#323232;" d="M24.5,7.6c-4.4,0-7.9,3.3-8.4,7.5H16V32h17V15.1h-0.1C32.4,10.9,28.9,7.6,24.5,7.6z M31,30H18v-9.3
			c0.3,0.3,0.7,0.6,1.5,0.6c1.3,0,2.1-0.7,2.1-1.6c0-0.4,0-0.9,0-0.9l0,0c0-0.5,0.4-0.9,0.9-0.9s0.9,0.4,0.9,0.9c0,0,0,0,0,0
			c0,0,0,0,0,0c0,0.8,0,3.3,0,3.3s0,1.8,2.1,1.8c2.1,0,2.1-1.8,2.1-1.8v-2.2h0c0,0,0,0,0,0c0-0.7,0.6-1.3,1.3-1.3s1.3,0.6,1.3,1.3
			c0,0,0,0.1,0,0.1s0,0.6,0.7,0.9L31,30L31,30z"/>
		<path style="fill:#323232;" d="M23,40.1c0,0.8,0.7,1.5,1.5,1.5c0.8,0,1.5-0.7,1.5-1.5V33h-3V40.1z"/>
	</g>
</g>
</svg>
