<?xml version="1.0" encoding="utf-8"?>
<!-- Generator: Adobe Illustrator 21.1.0, SVG Export Plug-In . SVG Version: 6.00 Build 0)  -->
<svg version="1.1" id="Layer_1" xmlns="http://www.w3.org/2000/svg" xmlns:xlink="http://www.w3.org/1999/xlink" x="0px" y="0px"
	 width="49px" height="49px" viewBox="0 0 49 49" style="enable-background:new 0 0 49 49;" xml:space="preserve">
<g>
	<path style="fill:#323232;" d="M24.5,0C11,0,0,11,0,24.5S11,49,24.5,49S49,38,49,24.5S38,0,24.5,0z M24.5,47C12.1,47,2,36.9,2,24.5
		C2,12.1,12.1,2,24.5,2C36.9,2,47,12.1,47,24.5C47,36.9,36.9,47,24.5,47z"/>
	<path style="fill:#323232;" d="M28.9,13.1c0-2.8-2.3-5-5-5s-5,2.3-5,5v14.6c-1.3,1.3-2,3.1-2,4.9c0,3.9,3.2,7.1,7.1,7.1
		s7.1-3.2,7.1-7.1c0-1.9-0.8-3.8-2.2-5.1V13.1z M29.1,32.7c0,2.8-2.3,5.1-5.1,5.1c-2.8,0-5.1-2.3-5.1-5.1c0-1.6,0.8-3.1,2-4V13.1
		c0-1.7,1.4-3,3-3s3,1.4,3,3v15.4C28.3,29.4,29.1,31,29.1,32.7z"/>
	<path style="fill:#323232;" d="M25,29.6V13.2c0-0.6-0.4-1-1-1c-0.6,0-1,0.4-1,1v16.4c-1.2,0.4-2,1.5-2,2.8c0,1.7,1.3,3,3,3
		s3-1.3,3-3C27,31.1,26.2,30,25,29.6z"/>
	<rect x="31" y="12" style="fill:#323232;" width="6" height="2"/>
	<rect x="31" y="16" style="fill:#323232;" width="6" height="2"/>
	<rect x="31" y="20" style="fill:#323232;" width="6" height="2"/>
	<rect x="31" y="24" style="fill:#323232;" width="6" height="2"/>
</g>
</svg>
