<?xml version="1.0" encoding="utf-8"?>
<!-- Generator: Adobe Illustrator 21.1.0, SVG Export Plug-In . SVG Version: 6.00 Build 0)  -->
<svg version="1.1" id="Слой_1" xmlns="http://www.w3.org/2000/svg" xmlns:xlink="http://www.w3.org/1999/xlink" x="0px" y="0px"
	 width="49px" height="49px" viewBox="0 0 49 49" style="enable-background:new 0 0 49 49;" xml:space="preserve">
<g id="Layer_2">
	<g>
		<path style="fill:#323232;" d="M24.5,0C11,0,0,11,0,24.5S11,49,24.5,49S49,38,49,24.5S38,0,24.5,0z M24.5,47
			C12.1,47,2,36.9,2,24.5C2,12.1,12.1,2,24.5,2C36.9,2,47,12.1,47,24.5C47,36.9,36.9,47,24.5,47z"/>
		<path style="fill:#323232;" d="M34.8,19.3c0.9-1.7,1.9-5,0.4-9.5c-0.1-0.4-0.5-0.6-0.9-0.7c-0.4,0-0.8,0.2-1,0.5
			c-1.3,2.3-4,5.9-6,6.1c0,0-0.1,0-0.1,0c-1.5-0.3-2.7-0.3-2.8-0.3c-0.1,0-1.3,0-2.8,0.3c0,0,0,0-0.1,0c-2-0.2-4.8-3.8-6-6.1
			c-0.2-0.3-0.6-0.5-1-0.5c-0.4,0-0.7,0.3-0.9,0.7c-1.4,4.5-0.4,7.8,0.4,9.5c-1.7,0.2-4,0.8-4.8,2.2c-0.4,0.7-0.4,1.5,0,2.2
			c0.5,0.9,1.4,1.2,2.3,1.2c0.8,0,1.7-0.2,2.3-0.5c0,0.5,0,1.1,0.1,1.6c0.3,1.5,1.1,3.6,1.7,5.2c0.2,0.5,0.4,1,0.5,1.3
			c-0.2,0.6-0.7,1.8-0.8,2.5c-0.1,0.8,0.1,2.1,1.1,3.3c1.4,1.7,4,2.5,7.6,2.5c3.6,0,6.2-0.8,7.6-2.5c1-1.2,1.2-2.5,1.1-3.3
			c-0.1-0.7-0.5-1.9-0.8-2.5c0.1-0.3,0.3-0.8,0.5-1.3c0.6-1.6,1.5-3.7,1.8-5.2c0.1-0.5,0.1-1.1,0.1-1.6c0.7,0.2,1.5,0.5,2.3,0.5
			c0.9,0,1.8-0.3,2.3-1.2c0.4-0.7,0.4-1.5,0-2.2C38.8,20.1,36.6,19.6,34.8,19.3z M33.9,12.7c0.4,3.1-0.5,5.2-1,6.1
			c-0.2-0.3-0.5-0.6-0.8-0.9c-0.5-0.5-1.2-0.9-1.9-1.3C31.6,15.6,32.9,14,33.9,12.7z M15.1,12.7c0.9,1.3,2.2,2.9,3.7,4
			C18.1,17,17.5,17.4,17,18c-0.3,0.3-0.5,0.6-0.8,0.9C15.6,17.9,14.7,15.8,15.1,12.7z M11.2,22.8c-0.1-0.2-0.1-0.2,0-0.2
			c0.2-0.4,1.4-1,3.6-1.2c-0.1,0.3-0.2,0.6-0.3,0.9C13.2,22.8,11.5,23.3,11.2,22.8z M32.8,25.7c-0.3,1.3-1.1,3.4-1.6,4.8
			c-0.4,1-0.6,1.6-0.7,1.9l-0.1,0.3l0.1,0.3c0.3,0.7,0.7,1.9,0.8,2.4c0,0,0.1,0.9-0.6,1.7c-0.7,0.8-2.4,1.8-6.1,1.8s-5.4-1-6.1-1.8
			c-0.7-0.9-0.7-1.7-0.6-1.7c0.1-0.4,0.5-1.6,0.8-2.4l0.1-0.3l-0.1-0.3c-0.1-0.3-0.3-0.9-0.7-1.9c-0.6-1.5-1.4-3.5-1.6-4.8
			c-0.4-2.2,0.4-4.6,2.1-6.4c1.5-1.5,4.9-1.9,6.1-1.9c1.2,0,4.5,0.3,6.1,1.9C32.7,21.4,33.1,24,32.8,25.7z M37.8,22.8
			c-0.3,0.5-2,0.1-3.2-0.6c-0.1-0.3-0.2-0.6-0.3-0.9c2.2,0.2,3.4,0.8,3.6,1.2C37.9,22.6,37.9,22.6,37.8,22.8z"/>
	</g>
</g>
</svg>
