<?xml version="1.0" encoding="utf-8"?>
<!-- Generator: Adobe Illustrator 21.1.0, SVG Export Plug-In . SVG Version: 6.00 Build 0)  -->
<svg version="1.1" id="Layer_1" xmlns="http://www.w3.org/2000/svg" xmlns:xlink="http://www.w3.org/1999/xlink" x="0px" y="0px"
	 width="61px" height="61px" viewBox="0 0 61 61" style="enable-background:new 0 0 61 61;" xml:space="preserve">
<circle style="fill:#FFFFFF;" cx="30.5" cy="30.5" r="30.5"/>
<g>
	<path style="fill:#231F20;" d="M20,18.3c-0.9,2.7-1.7,5.4-2.5,8.1c-0.5-2.9-0.9-5.8-1-8.7c0-0.4-1.9-0.1-1.9,0.5
		c0.1,4.2,0.8,8.4,1.7,12.4c-1.2,4.6-2.3,9.2-3.6,13.8c-0.1,0.4,1.8,0.1,1.9-0.3c0.9-3.3,1.7-6.5,2.6-9.8c0.8,3.2,1.6,6.4,2.3,9.7
		c0.1,0.5,2,0,1.9-0.5c-0.9-4.5-2.1-8.8-3.1-13.2c1.1-4.1,2.2-8.2,3.6-12.2C22,17.6,20.2,17.8,20,18.3z"/>
	<path style="fill:#231F20;" d="M34.4,18.8c0-1-1.9-0.8-2,0.1c0,0.1,0,0.2,0,0.2c0,0.1-0.1,0.1-0.1,0.2c-1,4.5-2.6,8.7-4.1,13.1
		c-0.6,1.9-1.1,3.9-1.7,5.9c-0.1-6.6-0.1-13.2-0.2-19.9c0-1-2-0.8-2,0.1c0,8.3,0,16.6,0.3,25c0,0.1,0,0.2,0,0.3c0,0.1,0,0.3,0.1,0.4
		c0.1,0.9,2,0.5,1.9-0.3c0,0,0,0,0,0c1.6-4.2,2.5-8.6,3.9-12.8c0.5-1.6,1-3.1,1.6-4.7c-0.1,6,0.1,12,0.2,18c0,1,1.6,0.8,1.9,0.1
		c0,0,0-0.1,0.1-0.1c0.1-0.2,0.1-0.4,0-0.6C34.2,35.4,34,27.1,34.4,18.8z"/>
	<path style="fill:#231F20;" d="M47.3,17.7c-3.2,0.4-6.3,0.2-9.5,0c-0.5,0-2.2,0.9-1.2,0.9c1.1,0.1,2.2,0.1,3.3,0.1
		c-0.1,0.1-0.2,0.2-0.2,0.3c0.3,8.4-1.1,17.2,0.2,25.6c0.1,0.4,2,0,1.9-0.5c-1.2-8.2,0.1-17-0.2-25.3c1.8,0,3.6-0.1,5.3-0.3
		C47.9,18.4,48.7,17.5,47.3,17.7z"/>
</g>
</svg>
