<?xml version="1.0" encoding="utf-8"?>
<!-- Generator: Adobe Illustrator 21.1.0, SVG Export Plug-In . SVG Version: 6.00 Build 0)  -->
<svg version="1.1" id="Layer_2" xmlns="http://www.w3.org/2000/svg" xmlns:xlink="http://www.w3.org/1999/xlink" x="0px" y="0px"
	 width="154px" height="64px" viewBox="0 0 154 64" style="enable-background:new 0 0 154 64;" xml:space="preserve">
<g>
	<path style="fill:#FFFFFF;" d="M59.3,42.8c-0.8-0.2-2.2,0.4-2.2,0.4s-3,2.5-17.8-0.4c-10.9-2.1-16.6-1.9-16.6-1.9s1.8-12.5,1.3-16
		c0,0,0-0.9-1.1-0.9s-1.8,0.4-1.8,1s0.2,4.4-0.2,7.1c0,0-1.4,4.3-6.2,3.9S9,32.2,8.6,29.8S8,21,9.2,18.3c0,0,7.2,0.2,11.7-3.6
		s4.2-7.2,2.1-8.6S15.9,5,12,8.5s-5.1,7-5.1,7s-5.6-1.2-4.3-7.1C4,2.3,12.4,3,12.4,3c1.8,0.3,1.8,0.5,2.4-0.1s1-2.1-1.8-2.2
		S2,2,0.5,7.5c-1.7,5.8,1.4,10,5.6,10.6c0,0-2.3,10.1,0.5,15.1s6.9,4.9,8.6,4.9s4.6-0.9,5.4-2.2c0,0-0.4,3.6-0.7,4.9
		c0,0-6.9-0.1-9.1,1c-3.7,1.9-2.9,6.5-1.5,8.1c1.2,1.4,4.8,2.1,7.4,0.9c2.7-1.3,4.9-3.7,5.5-7.7c0,0,6.4-0.5,12.5,1.4
		s14.8,3.6,17.3,3.6s8-0.7,8.3-2.9C60.7,43.7,60.1,43,59.3,42.8z M15.9,9.3c0,0,3.3-2.5,4.8-0.9c0,0,1.2,1.3,0.1,2.8
		c-0.7,0.9-2.4,3.6-10.7,4.9C10.1,16.1,12.7,11.6,15.9,9.3z M16.1,48.2c0,0-4.5,2.5-5-0.9c-0.3-2.2,0.9-3.2,1.7-3.6s1.9-0.9,6.6-0.7
		C19.3,43.1,19.3,46.4,16.1,48.2z"/>
	<path style="fill:#FFFFFF;" d="M73.6,24.5c0,2.3,0,4.5,0,6.8c0,0,0,0.1,0,0.1c0,0.9-0.4,1.7-0.9,2.5c-0.3,0.5-0.7,1.1-1.2,1.5
		c-0.5,0.5-0.9-0.6-1.1-1c-1.4-2.9-0.7-6.8-0.2-9.9c0.3-1.5-2.7-1.1-2.9,0.2c-0.3,1.9-0.9,5.1-0.5,7.9c-0.6,0.1-1.2,0.4-1.3,0.7
		c-0.5,1.1-2,4.7-3.8,3.3c-1.3-1-1.5-3.7-1.6-5.3c-0.2-2.1,0.2-4.3,0.8-6.3c-0.1,0.2,1.1-2.8,1.7-1.7c0.3,0.7,0,2.6-0.6,3.1
		c-1.6,1.2,0.9,1.7,1.8,1c1.8-1.4,3-5.7-0.1-6.2c-3.5-0.6-5.4,2.9-6.2,5.7c-0.3,1.3-0.6,3.1-0.5,4.9c-0.5,0.8-2.1,3.5-3,4
		c-1.1,0.6-1.1-0.2-1.1-0.8s0.5-5.1,0.8-8.3c0.2-2-0.1-2.8-0.5-3.6s-4-2.8-7.1,0.8c-2.2,2.5-2.9,4.9-3.1,7.1
		c-0.2,0.4-0.4,0.9-0.7,1.4c-1.5,2.8-3.4,3.9-4.1,2c-0.6-1.7-0.9-3.7-0.8-6.2c0-0.1,3.5-5,5.1-11.8s1.2-10.1,0.4-10.6
		s-4.2-1.9-6.3,6.2c-1.5,6-2.1,12.5-1.6,17.9c-0.3,0.7-0.7,1.5-1.2,2.4c-1.5,2.8-3.4,3.9-4.1,2c-0.6-1.7-0.9-3.7-0.8-6.2
		c0-0.1,3.5-5,5.1-11.8s1.2-10.1,0.4-10.6s-4.2-1.9-6.3,6.2s-2.5,17.1-0.5,23.1c0,0,1.1,3.4,3.1,3.1c1.7-0.2,3.7-1.8,4.8-4.9
		c0.1,0.6,0.3,1.2,0.5,1.8c0,0,1.1,3.4,3.1,3.1c1.4-0.2,3-1.3,4.1-3.4c0.7,1.8,2.2,3.3,4.2,3c2.7-0.5,3.2-1.9,3.2-1.9
		s-0.1,2.4,1.7,2.4c1.5,0,2.7-0.9,3.9-3.2c0.4-0.8,0.6-1.2,0.8-1.5c0.4,2.1,1.2,4.1,3,4.8c3,1.3,5.6-1.2,7.2-3.6
		c0.5,1.2,1.2,2.2,2.5,2.6c1.3,0.5,2.7,0,3.8-0.9c0,1.2,0,2.3,0,3.5c-0.6,0-1.2,0.1-1.5,0.4c-3.2,2.8-4.6,6.2-4.2,10.5
		c0.2,2.5,2.6,3.6,4.7,2.7c3.1-1.3,3.6-6,3.8-8.8c0.6-6.8,0.1-13.9,0.1-20.8C76.5,22.9,73.6,23.4,73.6,24.5z M30.3,13.3
		c0.7-2.7,1.3-3.7,2-3.7s0.9,0.7,0.5,3s-2,8.6-4.1,12.7C28.6,25.3,29.6,15.9,30.3,13.3z M38.7,13.3c0.7-2.7,1.3-3.7,2-3.7
		s0.9,0.7,0.5,3s-2,8.6-4.1,12.7C37,25.3,38,15.9,38.7,13.3z M51.5,25.7c-0.1,0.6-0.5,4.3-1,6.3s-1,2.8-2.6,3.4
		c-1.7,0.7-2.4-1.4-2.4-1.4c-1.1-3.2,0.4-6,1.7-7.9s2.6-2.1,3.3-2C50.8,24.2,51.7,24.6,51.5,25.7z M73.5,43.8c0,2.7-0.4,5.4-1.6,7.8
		c-0.7,0.1-1-0.1-1.2-1.2c-0.1-1.1-0.1-2.2,0-3.3c0.2-2,1.4-3.7,2.8-5.2C73.5,42.5,73.5,43.2,73.5,43.8z"/>
	<path style="fill:#FFFFFF;" d="M92.3,21.6c-2.5-1.2-4.8-3.3-5.7-6c-1.3-3.8,2.9-6.6,6.3-6.5c3.5,0.2,5.1,3.6,5,6.7
		c-0.1,1.1-0.7,3.6-2.1,2.3c-1-0.9-1.4-2.4-1.6-3.6c-0.2-1.2-3.1-0.5-2.9,0.8c0.6,3.7,4.5,7.7,7.9,3.9c3-3.4,1.7-9.5-2.6-11.2
		C92.1,6,86.5,8,84.1,12.3c-2.7,4.8,2.7,9.6,6.6,11.3c6.2,3.3,6.5,14.1-1.8,14.1c-3.4,0-6.6-2.4-7.7-5.6c-0.6-1.7-0.3-7.6,2-8
		c1.8-0.4,1.3-2-0.5-1.7c-3.7,0.7-5.1,5.5-4.7,8.9c0.6,5.3,5.6,8.3,10.6,8.3c4.7,0,8.7-2.9,9.6-7.5C99.2,27.5,96.4,23.2,92.3,21.6z"
		/>
	<path style="fill:#FFFFFF;" d="M110.9,37.5c-2.9-1.6-1.2-7.6-0.8-9.9c0.3-1.5,1.6-3.8-0.5-4.3c-2.4-0.6-5.2,1.7-7.3,3.9
		c0-2.5,0.2-5,0.6-7.5c3.1-1.6,5.4-3.8,7.2-7.4c1.3-2.6,1.9-8-2.5-6.4c-4,1.4-5.4,6-6.6,9.7c-0.5,1.4-0.8,2.9-1.1,4.4
		c-0.4,0.2-0.8,0.3-1.2,0.4c-1.7,0.5-1.4,1.4,0.2,0.9c0.3-0.1,0.5-0.2,0.8-0.3c-0.8,5.6-0.3,11.5,0.2,17c0,0.5,3,0,2.9-0.8
		c-0.2-2.5-0.4-4.9-0.5-7.4c0.3-0.1,0.5-0.2,0.6-0.4c0.9-1.2,2-2.2,3.1-3.2c0.3-0.3,0.6-0.5,0.9-0.8c0.2-0.1,0.3-0.2,0.5-0.3
		c0.7-0.5,0.8-0.5,0.4,0c-0.1,0.9-0.5,1.9-0.6,2.8c-0.5,3-2.1,8.9,1.3,10.8C109.3,39.2,112,38.1,110.9,37.5z M104.4,13.4
		c0.3-0.9,0.7-1.8,1.1-2.6c0.5-1.1,1.7-4.8,2.6-3c0.7,1.4-0.4,3.7-0.9,5.1c-0.8,2.2-2.3,3.9-4,5.3C103.5,16.6,103.9,15,104.4,13.4z"
		/>
	<path style="fill:#FFFFFF;" d="M121.6,30.5c0-3.3-0.4-7.5-4.3-7.9c-4.3-0.4-6,4.1-6.1,7.5c0,0.3,0.1,0.5,0.3,0.6
		c0,3.1,0.8,7.3,4.5,7.2C120.3,37.9,121.6,34.2,121.6,30.5z M116.6,36c-2.4-1-2.2-5.2-2.1-7.2c0-0.2-0.1-0.4-0.2-0.5
		c0.3-2,1.1-5,2.9-3.5c1.4,1.2,1.4,4.1,1.5,5.8C118.8,31.7,118.6,36.8,116.6,36z"/>
	<path style="fill:#FFFFFF;" d="M153.1,48.6c-1.1-2.9-3.6-4-6.3-4.1c-0.3-0.7-0.7-1.4-1.1-2.1c-3.9-5.8-13.2-5-19.5-1.9
		c0-0.9-0.1-1.8-0.1-2.7c2.5,0.1,5-0.9,6.5-3c1.7-2.4,1.4-6.6,0.8-9.3c-0.6-2.5-3.1-2.1-4.9-1.2c-0.7,0.3-1.3,0.7-1.9,1.3
		c0.1-0.7,0.1-1.3,0.2-2c0.1-1.5-2.8-1.2-2.9,0.2c-0.5,6.2-0.3,12.4-0.4,18.5c-4.3,3.9-5.3,7.5-5.4,12.1c0,2.3,1.9,4,4,2.4
		c2.9-2.2,3.8-6.6,4.2-10c0.2-1.5,0.2-3,0.2-4.5c4.5-2.9,10.6-3.1,15.2-0.1c0.9,0.6,1.7,1.6,2.3,2.7c-1.7,0.3-3.3,0.9-4.6,1.5
		c-1.7,0.8-4.3,2.8-4.1,4.9c0.1,1.7,1,2.6,2.3,3c0.1,0,0.2,0.1,0.3,0.1c6.1,1,10.7-2.6,9.8-7.7c3,1.6,4.1,5.4,3,8.7
		c-2.4,7.3-11.6,8.9-16.9,4.1c-0.6-0.5-3.2,0.6-2.7,1C138.6,67.2,157.8,60.7,153.1,48.6z M123.2,46.8c-0.1,1.7-0.5,3.5-1.1,5.1
		c-0.2,0.5-0.5,1.1-0.8,1.6c0,0-0.3,0.1-0.3-0.7c0-2.9,0.8-5.6,2.3-7.9C123.2,45.6,123.2,46.2,123.2,46.8z M126.3,28.9
		c0.1-0.1,0.1-0.1,0.1-0.2c0.5-0.9,1.2-1.7,1.9-2.5c0.5-0.6,1.1-1.1,1.8-1.5c0.3,0.2,0.7,1,0.8,2.1c0.3,2.8,0.4,10.1-3.9,9.4
		c-0.2,0-0.6,0-0.9,0.2c0,0,0,0,0,0C126,33.9,126.1,31.4,126.3,28.9z M139.4,52.7C139.4,52.7,139.4,52.7,139.4,52.7
		c-1.7-0.4-1.6-2-1.3-3.1c0.5-2.5,3.6-3.9,6.1-4C145.5,49.2,144.5,53.5,139.4,52.7z"/>
</g>
</svg>
